<mxfile host="65bd71144e">
    <diagram id="s3XKS49f7g5tn125unqJ" name="Page-1">
        <mxGraphModel dx="716" dy="375" grid="1" gridSize="10" guides="1" tooltips="1" connect="1" arrows="1" fold="1" page="1" pageScale="1" pageWidth="1200" pageHeight="600" math="0" shadow="0">
            <root>
                <mxCell id="0"/>
                <mxCell id="1" parent="0"/>
                <mxCell id="21" value="" style="fillColor=none;strokeColor=#364AFF;rounded=0;connectable=0;arcSize=8;dashed=1;strokeWidth=2;" parent="1" vertex="1">
                    <mxGeometry x="180" y="60" width="280" height="280" as="geometry"/>
                </mxCell>
                <mxCell id="25" value="" style="endArrow=none;dashed=1;entryX=0.5;entryY=1;entryDx=0;entryDy=0;" parent="1" target="5" edge="1">
                    <mxGeometry width="50" height="50" relative="1" as="geometry">
                        <mxPoint x="400" y="320" as="sourcePoint"/>
                        <mxPoint x="480" y="180" as="targetPoint"/>
                    </mxGeometry>
                </mxCell>
                <mxCell id="4" value="" style="endArrow=none;dashed=1;entryX=0.5;entryY=1;entryDx=0;entryDy=0;" parent="1" target="3" edge="1">
                    <mxGeometry width="50" height="50" relative="1" as="geometry">
                        <mxPoint x="240" y="320" as="sourcePoint"/>
                        <mxPoint x="470" y="170" as="targetPoint"/>
                    </mxGeometry>
                </mxCell>
                <mxCell id="2" value="" style="rounded=0;" parent="1" vertex="1">
                    <mxGeometry x="395" y="220" width="10" height="60" as="geometry"/>
                </mxCell>
                <mxCell id="3" value="User" style="rounded=0;fontSize=9;" parent="1" vertex="1">
                    <mxGeometry x="200" y="80" width="80" height="40" as="geometry"/>
                </mxCell>
                <mxCell id="5" value="Incoice-Collector&#10;Container" style="rounded=0;fontSize=9;" parent="1" vertex="1">
                    <mxGeometry x="360" y="80" width="80" height="40" as="geometry"/>
                </mxCell>
                <mxCell id="6" value="Incoice-Collector&#10;Server" style="rounded=0;fontSize=9;" parent="1" vertex="1">
                    <mxGeometry x="520" y="80" width="80" height="40" as="geometry"/>
                </mxCell>
                <mxCell id="7" value="" style="endArrow=open;fontSize=9;endFill=0;" parent="1" edge="1">
                    <mxGeometry width="50" height="50" relative="1" as="geometry">
                        <mxPoint x="250" y="220" as="sourcePoint"/>
                        <mxPoint x="390" y="220" as="targetPoint"/>
                    </mxGeometry>
                </mxCell>
                <mxCell id="8" value="Hit &quot;ping!&quot;" style="text;strokeColor=none;fillColor=none;align=center;verticalAlign=middle;rounded=0;fontSize=9;" parent="1" vertex="1">
                    <mxGeometry x="250" y="210" width="140" height="10" as="geometry"/>
                </mxCell>
                <mxCell id="9" value="Ping!" style="text;strokeColor=none;fillColor=none;align=center;verticalAlign=middle;rounded=0;fontSize=9;" parent="1" vertex="1">
                    <mxGeometry x="410" y="230" width="140" height="10" as="geometry"/>
                </mxCell>
                <mxCell id="11" value="" style="endArrow=open;fontSize=9;endFill=0;" parent="1" edge="1">
                    <mxGeometry width="50" height="50" relative="1" as="geometry">
                        <mxPoint x="410" y="240" as="sourcePoint"/>
                        <mxPoint x="550" y="240" as="targetPoint"/>
                    </mxGeometry>
                </mxCell>
                <mxCell id="13" value="" style="endArrow=none;dashed=1;entryX=0.5;entryY=1;entryDx=0;entryDy=0;" parent="1" target="6" edge="1">
                    <mxGeometry width="50" height="50" relative="1" as="geometry">
                        <mxPoint x="560" y="320" as="sourcePoint"/>
                        <mxPoint x="410" y="129.99999999999994" as="targetPoint"/>
                    </mxGeometry>
                </mxCell>
                <mxCell id="15" value="" style="rounded=0;" parent="1" vertex="1">
                    <mxGeometry x="555" y="240" width="10" height="20" as="geometry"/>
                </mxCell>
                <mxCell id="16" value="" style="endArrow=open;fontSize=9;endFill=0;" parent="1" edge="1">
                    <mxGeometry width="50" height="50" relative="1" as="geometry">
                        <mxPoint x="550" y="260" as="sourcePoint"/>
                        <mxPoint x="410" y="260" as="targetPoint"/>
                    </mxGeometry>
                </mxCell>
                <mxCell id="17" value="Pong!" style="text;strokeColor=none;fillColor=none;align=center;verticalAlign=middle;rounded=0;fontSize=9;" parent="1" vertex="1">
                    <mxGeometry x="410" y="250" width="140" height="10" as="geometry"/>
                </mxCell>
                <mxCell id="18" value="" style="endArrow=open;fontSize=9;endFill=0;" parent="1" edge="1">
                    <mxGeometry width="50" height="50" relative="1" as="geometry">
                        <mxPoint x="390" y="280" as="sourcePoint"/>
                        <mxPoint x="250" y="280" as="targetPoint"/>
                    </mxGeometry>
                </mxCell>
                <mxCell id="19" value="Return result" style="text;strokeColor=none;fillColor=none;align=center;verticalAlign=middle;rounded=0;fontSize=9;" parent="1" vertex="1">
                    <mxGeometry x="250" y="270" width="140" height="10" as="geometry"/>
                </mxCell>
                <mxCell id="20" value="" style="rounded=0;" parent="1" vertex="1">
                    <mxGeometry x="235" y="160" width="10" height="120" as="geometry"/>
                </mxCell>
                <mxCell id="24" value="" style="rounded=0;" parent="1" vertex="1">
                    <mxGeometry x="395" y="160" width="10" height="20" as="geometry"/>
                </mxCell>
                <mxCell id="26" value="Open the /ping url" style="text;strokeColor=none;fillColor=none;align=center;verticalAlign=middle;rounded=0;fontSize=9;" parent="1" vertex="1">
                    <mxGeometry x="250" y="149.99999999999997" width="140" height="10" as="geometry"/>
                </mxCell>
                <mxCell id="27" value="" style="endArrow=open;fontSize=9;endFill=0;" parent="1" edge="1">
                    <mxGeometry width="50" height="50" relative="1" as="geometry">
                        <mxPoint x="250" y="160" as="sourcePoint"/>
                        <mxPoint x="390" y="160" as="targetPoint"/>
                    </mxGeometry>
                </mxCell>
                <mxCell id="28" value="" style="endArrow=open;fontSize=9;endFill=0;" parent="1" edge="1">
                    <mxGeometry width="50" height="50" relative="1" as="geometry">
                        <mxPoint x="390" y="180" as="sourcePoint"/>
                        <mxPoint x="250" y="180" as="targetPoint"/>
                    </mxGeometry>
                </mxCell>
                <mxCell id="29" value="Return the page" style="text;strokeColor=none;fillColor=none;align=center;verticalAlign=middle;rounded=0;fontSize=9;" parent="1" vertex="1">
                    <mxGeometry x="250" y="170" width="140" height="10" as="geometry"/>
                </mxCell>
                <mxCell id="31" value="User Infrastructure" style="text;strokeColor=none;align=center;fillColor=none;verticalAlign=middle;rounded=0;fontColor=#364AFF;" parent="1" vertex="1">
                    <mxGeometry x="180" y="40" width="280" height="20" as="geometry"/>
                </mxCell>
            </root>
        </mxGraphModel>
    </diagram>
</mxfile>